<svg xmlns="http://www.w3.org/2000/svg" width="64" height="64" xml:space="preserve"><path fill-rule="evenodd" clip-rule="evenodd" fill="#00B900" d="M50 30a2 2 0 1 1-.001-3.999A2 2 0 0 1 50 30zm0 6h-6a2 2 0 0 1-2-2V22a2 2 0 0 1 2-2h6a2 2 0 1 1 0 4h-4v8h4a2 2 0 1 1 0 4zM33.266 63.653a3.685 3.685 0 0 1-1.547.347A3.719 3.719 0 0 1 28 60.281v-6.344a2 2 0 0 1 4 0v3.75a1.312 1.312 0 0 0 1.879 1.182C46.771 51.445 60 40.041 60 28 60 14.744 47.464 4 32 4S4 14.744 4 28c0 6.393 2.924 12.194 7.678 16.494.424.366.698.902.698 1.506a2 2 0 0 1-2 2c-.505 0-.96-.191-1.312-.499l-.01.01C3.452 42.468 0 35.588 0 28 0 12.536 14.327 0 32 0s32 12.536 32 28c0 14.657-15.843 28.332-30.734 35.653zM12 22a2 2 0 1 1 4 0v10h2a2 2 0 1 1 0 4h-4a2 2 0 0 1-2-2V22zm6 26a2 2 0 1 1 .001 3.999A2 2 0 0 1 18 48zm6-28a2 2 0 0 1 2 2v12a2 2 0 1 1-4 0V22a2 2 0 0 1 2-2zm6 0c1.033 0 1.871.783 1.979 1.787L36 26.968V22a2 2 0 1 1 4 0v12a2 2 0 1 1-4 0v-.509l-4-5.151V34a2 2 0 1 1-4 0V22a2 2 0 0 1 2-2z"/></svg>